<svg width="24" height="18" viewBox="0 0 24 18" fill="none" xmlns="http://www.w3.org/2000/svg">
<path d="M2.79094 0.00792122C1.77282 0.112923 0.914067 0.531048 0.441567 1.15167C0.336567 1.29042 0.173442 1.61667 0.102192 1.82855C-0.0646832 2.32917 -0.0271832 2.85792 0.214692 3.37917C0.499692 3.99792 1.17844 4.59605 1.88157 4.84917C2.11219 4.93167 2.74594 5.13792 3.33469 5.32167C4.66594 5.73605 5.14782 5.91792 5.83782 6.26292C6.39469 6.5423 6.87657 6.85355 7.37344 7.2548C7.59657 7.43667 8.73469 8.56542 8.73469 8.60667C8.73469 8.64605 7.63407 9.7148 7.40344 9.90042C6.89157 10.3073 6.41532 10.6092 5.81907 10.9017C5.19657 11.2054 4.65469 11.4079 3.47532 11.7735C2.49469 12.0773 1.87032 12.2892 1.67532 12.381C0.972192 12.7204 0.409692 13.3223 0.194067 13.9654C0.104067 14.2335 0.0834418 14.361 0.0853168 14.6704C0.0853168 14.9217 0.0928168 14.9835 0.132192 15.1298C0.278442 15.651 0.428442 15.9117 0.773442 16.2398C0.989067 16.446 1.19157 16.5829 1.49907 16.731C2.12532 17.0348 2.91282 17.1735 3.63282 17.1098C3.92907 17.0835 4.40157 16.9973 4.62844 16.9298C5.39907 16.6992 6.06469 16.2417 6.44719 15.6829C6.68719 15.3304 6.82032 14.8917 6.79782 14.5298C6.76969 14.0967 6.53532 13.5098 6.26532 13.1929C6.16969 13.0823 5.86407 12.8442 5.66532 12.7279C5.60157 12.6904 5.54719 12.6548 5.54719 12.6473C5.54719 12.6417 5.64282 12.5742 5.75907 12.4992C6.04032 12.3135 6.50719 12.0885 7.31907 11.7398C7.69032 11.5804 8.15907 11.3742 8.35969 11.2842C8.85282 11.061 9.90094 10.536 10.3378 10.2923C10.6416 10.1217 10.6997 10.0954 10.7353 10.1123C10.7578 10.1235 12.6403 11.1885 14.9166 12.4804C17.1947 13.7723 19.1747 14.8879 19.3191 14.961C19.7991 15.201 20.2978 15.3567 20.8753 15.4429C21.1397 15.4823 21.9816 15.4767 22.2534 15.4335C22.7953 15.3473 23.2416 15.216 23.6597 15.0154C23.8041 14.946 23.9203 14.8823 23.9184 14.8729C23.9147 14.8654 21.5259 13.4573 18.6084 11.7454C15.6909 10.0335 13.2966 8.6273 13.2872 8.61792C13.2741 8.6048 15.0628 7.5473 22.8478 2.96292L23.9953 2.28605L23.9072 2.23167C23.6428 2.06667 23.1722 1.88105 22.7878 1.78917C22.4109 1.70105 22.2647 1.68605 21.7472 1.68605C21.3478 1.68792 21.2259 1.69542 21.0066 1.72917C20.4403 1.81917 19.8891 1.98605 19.3378 2.23355C19.2553 2.27105 18.0272 2.9573 16.6097 3.75792C15.1922 4.55855 13.2853 5.6348 12.3741 6.14855L10.7184 7.0823L10.6491 7.04292C9.80157 6.57417 8.47594 5.9348 7.10719 5.33105C6.28032 4.96542 6.10219 4.87917 5.74969 4.67105L5.49094 4.52105L5.56219 4.47417C5.70282 4.37855 5.92594 4.18167 6.09282 4.00542C6.37782 3.70167 6.53344 3.43355 6.64219 3.06042C6.85032 2.34042 6.60844 1.5923 5.97094 0.988546C5.72719 0.757921 5.49094 0.594797 5.16282 0.429796C4.74094 0.217922 4.33782 0.101671 3.80344 0.0341721C3.52969 0.000421524 2.99907 -0.0127029 2.79094 0.00792122ZM3.61032 1.12542C4.31157 1.22855 4.84407 1.5698 5.10282 2.0798C5.30344 2.4773 5.27907 2.96292 5.03719 3.37355C4.93594 3.54605 4.69594 3.7823 4.51407 3.88355C4.33594 3.9848 4.08282 4.06917 3.86907 4.0973C3.61032 4.13105 3.18094 4.11042 2.95782 4.0523C2.52094 3.93792 2.17782 3.74667 1.87969 3.45042C1.45969 3.03042 1.31344 2.52605 1.48032 2.08167C1.51594 1.98417 1.64907 1.76292 1.74657 1.63542C1.81219 1.54917 2.03532 1.37855 2.16282 1.3148C2.34657 1.2248 2.64844 1.13855 2.89407 1.10855C3.04219 1.0898 3.43407 1.09917 3.61032 1.12542ZM4.01532 13.0298C4.53469 13.1198 4.92844 13.3973 5.15344 13.8285C5.46282 14.421 5.29219 15.1204 4.73344 15.5629C4.35282 15.8648 3.83344 16.0279 3.25032 16.026C2.57157 16.026 2.09907 15.831 1.76344 15.411C1.55532 15.1523 1.47844 14.9554 1.47844 14.6854C1.47844 14.481 1.49907 14.3873 1.59282 14.1867C1.85907 13.611 2.48532 13.1592 3.19407 13.0317C3.39469 12.996 3.81469 12.9942 4.01532 13.0298Z" fill="black"/>
</svg>
